<svg xmlns="http://www.w3.org/2000/svg" width="197" height="71.656" viewBox="0 0 197 71.656"><defs><style>.a{fill:#1d1d1b;}.b{fill:#000f9f;}</style></defs><g transform="translate(-360 -15823)"><path class="a" d="M576.839,482.4a21.323,21.323,0,0,1-11.572-3.072A20.991,20.991,0,0,1,557.656,471a26.077,26.077,0,0,1,0-23.188,20.714,20.714,0,0,1,19.183-11.344,22.128,22.128,0,0,1,13.487,4.095,20.043,20.043,0,0,1,7.522,10.594h-7.212a13.74,13.74,0,0,0-4.849-6.23,13.443,13.443,0,0,0-8.059-2.4,15.357,15.357,0,0,0-14.151,8.459,19.13,19.13,0,0,0,0,16.869,15.431,15.431,0,0,0,5.607,6.185,15.6,15.6,0,0,0,8.557,2.314,13.43,13.43,0,0,0,8.06-2.4,13.738,13.738,0,0,0,4.849-6.23h7.212a20.052,20.052,0,0,1-7.522,10.594A22.212,22.212,0,0,1,576.839,482.4Z" transform="translate(-91.678 15393.041)"/><path class="a" d="M698.182,482.4A20.374,20.374,0,0,1,679.309,471a26.517,26.517,0,0,1,0-23.188,20.431,20.431,0,0,1,18.873-11.344,19.709,19.709,0,0,1,9.477,2.135,18.087,18.087,0,0,1,6.454,5.786v-7.742h6.678v45.533h-6.678v-7.6a18.441,18.441,0,0,1-6.454,5.7A19.864,19.864,0,0,1,698.182,482.4Zm.888-6.055a14.164,14.164,0,0,0,13.621-8.5,20.865,20.865,0,0,0,0-16.869,14.217,14.217,0,0,0-13.621-8.455,14.841,14.841,0,0,0-13.886,8.459,19.965,19.965,0,0,0,0,16.869,14.775,14.775,0,0,0,13.886,8.5Z" transform="translate(-163.792 15393.041)"/><path class="a" d="M416.751,482.659H410.46V455.767a18.857,18.857,0,1,1,37.714,0V482.5h-6.291V455.767a12.566,12.566,0,1,0-25.132,0Z" transform="translate(-6.069 15392.78)"/><path class="a" d="M332.94,445.206h6.287v18.6a18.856,18.856,0,1,1-37.712,0l0-26.892h6.307V463.8a12.569,12.569,0,1,0,25.138,0Z" transform="translate(58.485 15392.78)"/><path class="a" d="M519.4,482.642V436.88h6.678v45.762Z" transform="translate(-70.621 15392.798)"/><rect class="b" width="6.283" height="6.283" transform="translate(391.433 15829.679)"/><rect class="b" width="6.678" height="6.678" transform="translate(455.457 15823)"/><path class="b" d="M311.043,565.93v12.289h-1.605v-5.7H303.2v5.7H301.61V565.93H303.2v5.3h6.242v-5.3Z" transform="translate(58.429 15316.331)"/><path class="b" d="M358.255,567.218v4.2h4.661v1.222h-4.661v4.286h5.2v1.292h-6.78V565.93h6.78v1.287Z" transform="translate(25.803 15316.331)"/><path class="b" d="M409.811,575.713h-5.4l-1.031,2.852H401.67l4.551-12.065h1.8l4.531,12.065h-1.707Zm-.452-1.222-2.257-6.218-2.249,6.2Z" transform="translate(-0.861 15315.993)"/><path class="b" d="M459.573,576.98h4.36V578.2H458V565.93h1.585Z" transform="translate(-34.239 15316.331)"/><path class="b" d="M508.294,565.93v1.287h-3.467v11h-1.589v-11H499.77V565.93Z" transform="translate(-58.99 15316.331)"/><path class="b" d="M559.643,565.93v12.289h-1.605v-5.7h-6.242v5.7H550.21V565.93h1.585v5.3h6.242v-5.3Z" transform="translate(-88.877 15316.331)"/><path class="b" d="M613.81,566.7a5.631,5.631,0,0,1,2.037,3.027h-1.671a4.1,4.1,0,0,0-1.52-1.948,4.391,4.391,0,0,0-2.559-.721,3.94,3.94,0,0,0-3.667,2.257,5.6,5.6,0,0,0-.55,2.555,5.508,5.508,0,0,0,.55,2.526,3.94,3.94,0,0,0,3.667,2.245,4.393,4.393,0,0,0,2.559-.721,4.075,4.075,0,0,0,1.52-1.943h1.671A5.642,5.642,0,0,1,613.81,577a5.977,5.977,0,0,1-3.712,1.1,5.778,5.778,0,0,1-3.052-.815,5.444,5.444,0,0,1-2.066-2.212,6.894,6.894,0,0,1-.742-3.231,6.988,6.988,0,0,1,.742-3.26,5.454,5.454,0,0,1,2.066-2.225,5.815,5.815,0,0,1,3.052-.79A5.977,5.977,0,0,1,613.81,566.7Z" transform="translate(-120.891 15316.544)"/><path class="b" d="M669.417,575.713h-5.4l-1.027,2.852H661.28l4.551-12.065h1.793l4.543,12.057H670.46Zm-.456-1.222-2.245-6.2-2.249,6.2Z" transform="translate(-154.691 15315.993)"/><path class="b" d="M724.089,578.219l-3.207-5.024h-1.728v5.024H717.57V565.93h4.042a4.381,4.381,0,0,1,3.141,1,3.525,3.525,0,0,1,1.043,2.661,3.428,3.428,0,0,1-.815,2.412,3.9,3.9,0,0,1-2.445,1.145l3.358,5.073Zm-4.934-6.173h2.318q2.7,0,2.7-2.371c0-1.577-.9-2.371-2.7-2.371h-2.318Z" transform="translate(-188.045 15316.331)"/><path class="b" d="M769.765,567.218v4.2h4.673v1.222h-4.673v4.286h5.2v1.292h-6.78V565.93h6.78v1.287Z" transform="translate(-218.034 15316.331)"/></g></svg>