<?xml version="1.0" encoding="utf-8"?>
<!-- Generator: Adobe Illustrator 25.2.1, SVG Export Plug-In . SVG Version: 6.00 Build 0)  -->
<svg version="1.1" id="Camada_1" xmlns="http://www.w3.org/2000/svg" xmlns:xlink="http://www.w3.org/1999/xlink" x="0px" y="0px"
	 viewBox="0 0 197 71.7" style="enable-background:new 0 0 197 71.7;" xml:space="preserve">
<style type="text/css">
	.st0{fill:#FFFFFF;}
</style>
<g transform="translate(-360 -15823)">
	<path class="st0" d="M485.2,15875.4c-4.1,0.1-8.1-1-11.6-3.1c-3.2-2-5.9-4.9-7.6-8.3c-3.6-7.3-3.6-15.9,0-23.2
		c3.6-7.2,11.1-11.6,19.2-11.3c4.8-0.1,9.6,1.3,13.5,4.1c3.6,2.6,6.3,6.3,7.5,10.6H499c-1-2.5-2.7-4.7-4.8-6.2
		c-2.4-1.6-5.2-2.5-8.1-2.4c-6-0.2-11.5,3.1-14.2,8.5c-2.6,5.3-2.6,11.5,0,16.9c1.3,2.5,3.2,4.7,5.6,6.2c2.6,1.6,5.5,2.4,8.6,2.3
		c2.9,0.1,5.7-0.8,8.1-2.4c2.2-1.6,3.9-3.7,4.8-6.2h7.2c-1.3,4.3-3.9,8-7.5,10.6C494.7,15874.2,490,15875.6,485.2,15875.4z"/>
	<path class="st0" d="M534.4,15875.4c-8,0.2-15.4-4.2-18.9-11.4c-3.6-7.3-3.6-15.9,0-23.2c3.5-7.1,10.9-11.6,18.9-11.3
		c3.3-0.1,6.5,0.6,9.5,2.1c2.6,1.4,4.8,3.4,6.5,5.8v-7.7h6.7v45.5h-6.7v-7.6c-1.7,2.4-3.9,4.3-6.5,5.7
		C540.9,15874.8,537.7,15875.5,534.4,15875.4z M535.3,15869.4c5.9,0.3,11.3-3.1,13.6-8.5c2.4-5.4,2.4-11.5,0-16.9
		c-2.4-5.4-7.8-8.7-13.6-8.5c-5.9-0.2-11.4,3.1-13.9,8.5c-2.5,5.3-2.5,11.5,0,16.9C523.9,15866.2,529.4,15869.6,535.3,15869.4
		L535.3,15869.4z"/>
	<path class="st0" d="M410.7,15875.4h-6.3v-26.9c0-10.4,8.4-18.9,18.8-18.9s18.9,8.4,18.9,18.8c0,0,0,0,0,0v26.7h-6.3v-26.7
		c0-6.9-5.6-12.6-12.6-12.6c-6.9,0-12.6,5.6-12.6,12.6c0,0,0,0,0,0V15875.4z"/>
	<path class="st0" d="M391.4,15838h6.3v18.6c0,10.4-8.4,18.9-18.9,18.9c-10.4,0-18.9-8.4-18.9-18.9v-26.9h6.3v26.9
		c0,6.9,5.6,12.6,12.6,12.6c6.9,0,12.6-5.6,12.6-12.6l0,0L391.4,15838z"/>
	<path class="st0" d="M448.8,15875.4v-45.8h6.7v45.8H448.8z"/>
	<rect x="391.4" y="15829.7" class="st0" width="6.3" height="6.3"/>
	<rect x="455.5" y="15823" class="st0" width="6.7" height="6.7"/>
	<path class="st0" d="M369.5,15882.3v12.3h-1.6v-5.7h-6.2v5.7H360v-12.3h1.6v5.3h6.2v-5.3H369.5z"/>
	<path class="st0" d="M384.1,15883.5v4.2h4.7v1.2h-4.7v4.3h5.2v1.3h-6.8v-12.3h6.8v1.3L384.1,15883.5z"/>
	<path class="st0" d="M409,15891.7h-5.4l-1,2.9h-1.7l4.6-12.1h1.8l4.5,12.1H410L409,15891.7z M408.5,15890.5l-2.3-6.2l-2.2,6.2
		L408.5,15890.5z"/>
	<path class="st0" d="M425.3,15893.3h4.4v1.2h-5.9v-12.3h1.6L425.3,15893.3z"/>
	<path class="st0" d="M449.3,15882.3v1.3h-3.5v11h-1.6v-11h-3.5v-1.3H449.3z"/>
	<path class="st0" d="M470.8,15882.3v12.3h-1.6v-5.7h-6.2v5.7h-1.6v-12.3h1.6v5.3h6.2v-5.3H470.8z"/>
	<path class="st0" d="M492.9,15883.2c1,0.8,1.7,1.8,2,3h-1.7c-0.3-0.8-0.8-1.5-1.5-1.9c-0.8-0.5-1.7-0.8-2.6-0.7
		c-1.6,0-3,0.8-3.7,2.3c-0.4,0.8-0.6,1.7-0.5,2.6c0,0.9,0.2,1.7,0.5,2.5c0.7,1.4,2.1,2.3,3.7,2.2c0.9,0,1.8-0.2,2.6-0.7
		c0.7-0.5,1.2-1.2,1.5-1.9h1.7c-0.3,1.2-1,2.3-2,3c-1.1,0.8-2.4,1.2-3.7,1.1c-1.1,0-2.1-0.3-3.1-0.8c-0.9-0.5-1.6-1.3-2.1-2.2
		c-0.5-1-0.8-2.1-0.7-3.2c0-1.1,0.2-2.2,0.7-3.3c0.5-0.9,1.2-1.7,2.1-2.2c0.9-0.5,2-0.8,3.1-0.8
		C490.5,15882.1,491.8,15882.5,492.9,15883.2z"/>
	<path class="st0" d="M514.7,15891.7h-5.4l-1,2.9h-1.7l4.6-12.1h1.8l4.5,12.1h-1.7L514.7,15891.7z M514.3,15890.5l-2.2-6.2l-2.2,6.2
		H514.3z"/>
	<path class="st0" d="M536,15894.5l-3.2-5h-1.7v5h-1.6v-12.3h4c1.1-0.1,2.3,0.3,3.1,1c0.7,0.7,1.1,1.7,1,2.7c0,0.9-0.2,1.7-0.8,2.4
		c-0.7,0.7-1.5,1.1-2.4,1.1l3.4,5.1L536,15894.5z M531.1,15888.4h2.3c1.8,0,2.7-0.8,2.7-2.4c0-1.6-0.9-2.4-2.7-2.4h-2.3V15888.4z"/>
	<path class="st0" d="M551.7,15883.5v4.2h4.7v1.2h-4.7v4.3h5.2v1.3h-6.8v-12.3h6.8v1.3L551.7,15883.5z"/>
</g>
</svg>
